# xmcd
#
# Track frame offsets:
#	150
#	37524
#	61835
#	92599
#	127821
#	156137
#	187030
#	217041
#	227376
#
# Disc length: 3397 seconds
#
# Revision: 0
# Processed by: cddbd v1.5PL3 Copyright (c) Steve Scherf et al.
# Submitted via: dBpowerAMP V4.0
#
DISCID=650d4309
DTITLE=arabee - compil
DYEAR=1900
DGENRE=Other
TTITLE0=a
TTITLE1=a
TTITLE2=a
TTITLE3=a
TTITLE4=a
TTITLE5=a
TTITLE6=a
TTITLE7=a
TTITLE8=a
EXTD=
EXTT0=
EXTT1=
EXTT2=
EXTT3=
EXTT4=
EXTT5=
EXTT6=
EXTT7=
EXTT8=
PLAYORDER=
